<?xml version="1.0" standalone="no"?>
<!DOCTYPE svg PUBLIC "-//W3C//DTD SVG 20010904//EN"
 "http://www.w3.org/TR/2001/REC-SVG-20010904/DTD/svg10.dtd">
<svg version="1.0" xmlns="http://www.w3.org/2000/svg"
 width="268.000000pt" height="268.000000pt" viewBox="0 0 268.000000 268.000000"
 preserveAspectRatio="xMidYMid meet">
<metadata>
Created by potrace 1.14, written by Peter Selinger 2001-2017
</metadata>
<g transform="translate(0.000000,268.000000) scale(0.100000,-0.100000)"
fill="#000000" stroke="none">
<path d="M530 1780 l0 -390 -260 0 -260 0 0 -35 0 -35 260 0 260 0 0 -395 c0
-389 0 -395 20 -395 11 0 325 176 697 392 586 339 677 389 687 376 6 -9 19
-30 28 -47 22 -39 85 -71 143 -71 68 0 120 31 153 90 l27 50 193 0 192 0 0 35
0 35 -192 0 -193 0 -27 50 c-67 120 -241 121 -307 2 -14 -27 -28 -41 -37 -38
-7 3 -309 176 -670 385 -449 261 -665 381 -685 381 l-29 0 0 -390z m725 -77
c319 -185 584 -339 588 -343 4 -4 -257 -160 -580 -347 -323 -188 -605 -351
-625 -363 l-38 -22 0 727 0 727 38 -22 c20 -12 298 -173 617 -357z m911 -261
c83 -67 42 -191 -63 -192 -33 0 -48 6 -72 31 -67 67 -22 179 72 179 25 0 51
-8 63 -18z"/>
</g>
</svg>
